<svg width="48" height="28" viewBox="0 0 48 28" fill="none" xmlns="http://www.w3.org/2000/svg">
<g clip-path="url(#clip0_1536_10515)">
<rect width="48" height="28" rx="4" fill="white"/>
<rect width="5" height="28" fill="#306FC5"/>
<rect x="42" width="6" height="28" fill="#306FC5"/>
<rect width="48" height="4" fill="#306FC5"/>
<rect y="23" width="48" height="5" fill="#306FC5"/>
<path d="M39.5103 25.999H7.46502C6.10413 25.999 5 24.8791 5 23.4989V12.9817H6.77584L7.17641 11.9984H8.07306L8.4726 12.9776H11.9668V12.2328L12.279 12.9828H14.0929L14.4051 12.2203V12.9807H23.0871V11.3723H23.2514C23.3685 11.3765 23.4024 11.3869 23.4024 11.5848V12.9828H27.8939V12.6088C28.353 12.8453 28.8943 12.9838 29.4684 12.9838C29.5013 12.9838 29.5331 12.9838 29.566 12.9828H29.5609H31.4507L31.8554 12.0036H32.7521L33.1475 12.9828H36.7896V12.0515L37.3401 12.9828H40.2529V6.83253H37.3699V7.55861L36.9662 6.83253H34.002V7.55861L33.6312 6.83253H29.6287C29.5773 6.82941 29.5157 6.82837 29.4551 6.82837C28.8871 6.82837 28.3499 6.96171 27.8734 7.20026L27.8949 7.19088V6.83253H25.1341V7.19088C24.8506 6.96379 24.4891 6.82733 24.0957 6.82733C24.0474 6.82733 24.0002 6.82941 23.954 6.83358H23.9601H13.871L13.1941 8.42218L12.4988 6.83358H9.32098V7.55965L8.97074 6.83358H6.25922L5.00308 9.75037V3.5001C5.00308 2.11984 6.10721 1 7.4681 1H39.5134C40.8743 1 41.9784 2.11984 41.9784 3.5001V14.4172H40.0547C40.0239 14.4151 39.9869 14.4151 39.9509 14.4151C39.5052 14.4151 39.0913 14.5506 38.7462 14.7829L38.7544 14.7777V14.4172H35.9093C35.8785 14.4151 35.8416 14.4141 35.8046 14.4141C35.3794 14.4141 34.9839 14.5495 34.6614 14.7808L34.6676 14.7766V14.4162H29.5876V14.7766C29.1952 14.5495 28.7248 14.4162 28.2246 14.4162C28.2113 14.4162 28.1979 14.4162 28.1846 14.4162H28.1866H24.8352V14.7766C24.4798 14.5443 24.0464 14.4068 23.5811 14.4068C23.5072 14.4068 23.4332 14.4099 23.3603 14.4172L23.3696 14.4162H19.6196L18.761 15.3579L17.9578 14.4162H12.356V20.5706H17.853L18.7374 19.6143L19.5703 20.5706H22.9587V19.1299H23.4312C23.4692 19.132 23.5144 19.132 23.5596 19.132C23.9838 19.132 24.3895 19.0508 24.7623 18.9039L24.7397 18.9122V20.5727H27.5334V18.9695H27.6679C27.8384 18.9695 27.8559 18.9757 27.8559 19.1508V20.5737H36.3459C36.3767 20.5748 36.4136 20.5758 36.4496 20.5758C36.9364 20.5758 37.3904 20.4279 37.7684 20.1748L37.7591 20.18V20.5737H40.4522C40.4902 20.5748 40.5354 20.5758 40.5806 20.5758C41.0849 20.5758 41.5645 20.4706 42 20.28L41.9764 20.2893V23.4999C41.9764 24.8802 40.8723 26 39.5114 26L39.5103 25.999ZM26.6768 19.7081H25.6312V15.2964H28.0305C28.0993 15.2902 28.1784 15.286 28.2595 15.286C28.6293 15.286 28.9806 15.3662 29.2969 15.511L29.2805 15.5048C29.602 15.6839 29.8166 16.0256 29.8166 16.4173C29.8166 16.4413 29.8156 16.4642 29.8146 16.4871V16.484C29.8146 16.4954 29.8156 16.51 29.8156 16.5236C29.8156 17.0298 29.5147 17.4653 29.0833 17.6549L29.0751 17.658C29.2815 17.733 29.4541 17.8611 29.5824 18.0268L29.5845 18.0288C29.6975 18.2174 29.7653 18.4466 29.7653 18.6903C29.7653 18.7414 29.7622 18.7903 29.7571 18.8403L29.7581 18.8341V19.707H28.7146V19.1549C28.7248 19.0935 28.731 19.0216 28.731 18.9487C28.731 18.7059 28.6632 18.4789 28.5471 18.2861L28.5502 18.2913C28.3828 18.1622 28.1702 18.084 27.9401 18.084C27.8867 18.084 27.8333 18.0882 27.782 18.0965L27.7881 18.0955H26.6768V19.707V19.7081ZM26.6768 16.2079V17.1986H27.9401C27.9679 17.2017 27.9987 17.2028 28.0315 17.2028C28.1846 17.2028 28.3304 17.1673 28.4598 17.1048L28.4537 17.108C28.5841 17.0215 28.6694 16.8746 28.6694 16.7069C28.6694 16.6986 28.6694 16.6913 28.6683 16.6829C28.6694 16.6746 28.6694 16.6663 28.6694 16.6569C28.6694 16.4986 28.5831 16.36 28.4557 16.2881L28.4537 16.2871C28.3335 16.2319 28.1938 16.1996 28.0459 16.1996C28.0161 16.1996 27.9863 16.2006 27.9566 16.2038H27.9607L26.6768 16.2079ZM17.4073 19.707H13.2917V15.2964H17.472L18.7507 16.7423L20.0726 15.2964H23.3932C24.5723 15.2964 25.1454 15.7725 25.1454 16.7496C25.1454 17.7444 24.5528 18.2278 23.3377 18.2278H22.0384V19.706H20.0182L18.7384 18.2486L17.4083 19.707H17.4073ZM21.0031 15.7694L19.407 17.509L21.0031 19.3049V15.7694ZM14.3281 17.9101V18.7872H16.8835L18.0646 17.4934L16.9287 16.2079H14.327V17.01H16.6092V17.909L14.3281 17.9101ZM22.0384 16.209V17.3319H23.3809C23.7917 17.3319 24.0279 17.1194 24.0279 16.7486C24.0279 16.3944 23.8081 16.2079 23.3922 16.2079L22.0384 16.209ZM40.5652 19.7091H38.5582V18.7612H40.5569C40.5806 18.7643 40.6073 18.7664 40.635 18.7664C40.7634 18.7664 40.8825 18.7237 40.9791 18.6507L40.978 18.6518C41.053 18.5809 41.1003 18.4799 41.1003 18.3674C41.1003 18.3663 41.1003 18.3653 41.1003 18.3643C41.1003 18.3601 41.1003 18.3549 41.1003 18.3507C41.1003 18.2393 41.051 18.1403 40.9739 18.0736C40.8877 18.0101 40.7798 17.9726 40.6638 17.9726C40.6442 17.9726 40.6247 17.9736 40.6062 17.9757H40.6083L40.4162 17.9695C39.4775 17.9445 38.4144 17.9153 38.4144 16.61C38.4144 15.9746 38.8068 15.2964 39.9047 15.2964H41.9764V16.2361H40.0814C40.0578 16.2329 40.0311 16.2319 40.0033 16.2319C39.878 16.2319 39.7609 16.2642 39.6582 16.3215L39.6623 16.3194C39.5709 16.3808 39.5103 16.4861 39.5103 16.6038C39.5103 16.6142 39.5103 16.6236 39.5114 16.634V16.6329V16.6444C39.5114 16.7923 39.6058 16.9173 39.7373 16.9611L39.7394 16.9621C39.8411 16.9944 39.9581 17.0142 40.0793 17.0142C40.0999 17.0142 40.1214 17.0132 40.142 17.0121H40.1389L40.7028 17.0267C40.75 17.0215 40.8055 17.0184 40.861 17.0184C41.2482 17.0184 41.6046 17.1548 41.885 17.384L41.8819 17.3819C41.9127 17.4069 41.9394 17.434 41.963 17.4642L41.9641 17.4653L41.9764 19.1445C41.6775 19.4966 41.2369 19.7185 40.7449 19.7185C40.6812 19.7185 40.6186 19.7143 40.558 19.7081L40.5652 19.7091ZM36.5092 19.7091H34.4837V18.7612H36.4989C36.5215 18.7643 36.5482 18.7664 36.5749 18.7664C36.7053 18.7664 36.8265 18.7237 36.9251 18.6507L36.9231 18.6518C36.9981 18.5809 37.0443 18.4789 37.0443 18.3674C37.0443 18.3663 37.0443 18.3653 37.0443 18.3643C37.0443 18.3622 37.0443 18.3591 37.0443 18.357C37.0443 18.2445 36.995 18.1424 36.9179 18.0736C36.8306 18.0101 36.7207 17.9726 36.6026 17.9726C36.5831 17.9726 36.5636 17.9736 36.5451 17.9757H36.5472L36.3561 17.9695C35.4204 17.9445 34.3584 17.9153 34.3584 16.61C34.3584 15.9746 34.7487 15.2964 35.8446 15.2964H37.9276V16.2361H36.0213C35.9977 16.2329 35.971 16.2319 35.9443 16.2319C35.82 16.2319 35.7029 16.2642 35.6012 16.3215L35.6053 16.3194C35.5098 16.3871 35.4482 16.4975 35.4482 16.6225C35.4482 16.7767 35.5416 16.909 35.6731 16.9642L35.6752 16.9652C35.7779 16.9975 35.895 17.0173 36.0172 17.0173C36.0388 17.0173 36.0613 17.0163 36.0829 17.0153H36.0798L36.6396 17.0298C36.6868 17.0246 36.7413 17.0225 36.7957 17.0225C37.186 17.0225 37.5455 17.159 37.829 17.3882L37.8259 17.3851C38.021 17.6038 38.1412 17.8945 38.1412 18.2143C38.1412 18.2507 38.1392 18.2882 38.1361 18.3236V18.3184C38.1392 19.2383 37.5897 19.707 36.5061 19.707L36.5092 19.7091ZM33.8613 19.7091H30.3897V15.2954H33.8582V16.2069H31.4271V17.009H33.8017V17.908H31.4271V18.7851L33.8613 18.7893V19.706V19.7091ZM35.8847 12.1192H33.7679L33.3632 11.1358H31.2042L30.8119 12.1192H29.5958C29.5619 12.1213 29.5218 12.1223 29.4818 12.1223C28.9539 12.1223 28.4681 11.938 28.0839 11.6286L28.0891 11.6317C27.7388 11.239 27.5252 10.7171 27.5252 10.1431C27.5252 10.0743 27.5283 10.0056 27.5344 9.93891L27.5334 9.94725C27.5283 9.88891 27.5252 9.8212 27.5252 9.75245C27.5252 9.16492 27.7409 8.62949 28.0962 8.22113L28.0942 8.22322C28.4609 7.8982 28.9436 7.70028 29.4725 7.70028C29.5434 7.70028 29.6122 7.7034 29.681 7.7107L29.6728 7.70965H30.6794V8.65032H29.6934C29.6564 8.64511 29.6133 8.64199 29.5691 8.64199C29.3072 8.64199 29.0699 8.74407 28.8922 8.91179L28.8933 8.91075C28.7043 9.15555 28.5903 9.46806 28.5903 9.80662C28.5903 9.84308 28.5913 9.87954 28.5944 9.91496V9.90975C28.5903 9.94933 28.5882 9.99621 28.5882 10.0431C28.5882 10.3827 28.6981 10.6962 28.883 10.9494L28.8799 10.9452C29.0535 11.089 29.2764 11.1765 29.5208 11.1765C29.5506 11.1765 29.5794 11.1754 29.6081 11.1723H29.604H30.0703L31.5401 7.7034H33.1013L34.8607 11.8702V7.7034H36.4434L38.2696 10.7744V7.7034H39.3378V12.1119H37.8547L35.8826 8.80137V12.1119L35.8847 12.1192ZM32.2909 8.45448L31.575 10.2129H33.0099L32.2909 8.45448ZM22.2264 12.1171H21.187V7.70653H23.5781C23.652 7.6982 23.7383 7.69403 23.8256 7.69403C24.1923 7.69403 24.5404 7.77632 24.8527 7.92425L24.8373 7.918C25.1546 8.09821 25.3652 8.43677 25.3652 8.82533C25.3652 8.85033 25.3642 8.87429 25.3631 8.89825V8.89512V8.92741C25.3631 9.43473 25.0653 9.8712 24.638 10.067L24.6298 10.0702C24.8362 10.1493 25.0098 10.2764 25.1423 10.4389L25.1444 10.441C25.2574 10.6285 25.3251 10.8556 25.3251 11.0994C25.3251 11.1525 25.3221 11.2046 25.3159 11.2567L25.3169 11.2504V12.1161H24.2683L24.2642 11.5598V11.4765C24.2703 11.4296 24.2744 11.3754 24.2744 11.3192C24.2744 11.09 24.2097 10.8765 24.0967 10.6962L24.0998 10.7014C23.9324 10.5764 23.7219 10.5004 23.4938 10.5004C23.4404 10.5004 23.387 10.5046 23.3357 10.5129L23.3418 10.5119H22.2274V12.1161L22.2264 12.1171ZM22.2264 8.62428V9.60348H23.4877C23.5175 9.60661 23.5524 9.60869 23.5873 9.60869C23.7383 9.60869 23.88 9.57327 24.0064 9.50973L24.0012 9.51181C24.1317 9.43056 24.2169 9.2868 24.2169 9.12326C24.2169 9.11388 24.2169 9.10346 24.2159 9.09409C24.2169 9.08575 24.2169 9.07742 24.2169 9.06805C24.2169 8.91075 24.1286 8.77428 23.9992 8.70657L23.9971 8.70553C23.8739 8.65136 23.7311 8.61907 23.5801 8.61907C23.5534 8.61907 23.5267 8.62011 23.501 8.62219H23.5041L22.2264 8.62428ZM11.2201 12.1171H9.10837L8.70883 11.1338H6.54372L6.1411 12.1171H5.0113L6.87342 7.70653H8.41714L10.1848 11.8807V7.70653H11.8805L13.2404 10.6973L14.4903 7.70653H16.221V12.115H15.1528L15.1508 8.6649L13.644 12.1161H12.732L11.2211 8.65969V12.1161L11.2201 12.1171ZM7.62114 8.45448L6.91347 10.2129H8.33292L7.62114 8.45448ZM27.0209 12.1161H25.9609V7.70653H27.0219V12.115L27.0209 12.1161ZM20.4619 12.1161H16.9964V7.70653H20.468V8.62323H18.0359V9.41806H20.4095V10.3233H18.0338V11.2046H20.466V12.115L20.4619 12.1161Z" fill="#306FC5"/>
</g>
<defs>
<clipPath id="clip0_1536_10515">
<rect width="48" height="28" rx="4" fill="white"/>
</clipPath>
</defs>
</svg>
