<svg width="48" height="28" viewBox="0 0 48 28" fill="none" xmlns="http://www.w3.org/2000/svg">
<rect width="48" height="28" rx="4" fill="black"/>
<path d="M15.9334 10.4182C15.617 10.7897 15.1107 11.0828 14.6044 11.0409C14.5411 10.5385 14.7889 10.0048 15.079 9.67507C15.3955 9.29305 15.9492 9.02093 16.3975 9C16.4503 9.52331 16.2446 10.0362 15.9334 10.4182ZM16.3923 11.1403C15.6592 11.0985 15.0315 11.5538 14.6835 11.5538C14.3301 11.5538 13.7974 11.1613 13.2173 11.1717C12.4631 11.1822 11.7616 11.6061 11.3766 12.2812C10.5855 13.6313 11.1709 15.6304 11.9357 16.7293C12.3101 17.2735 12.7584 17.8701 13.3491 17.8492C13.9082 17.8283 14.1297 17.4881 14.8048 17.4881C15.4851 17.4881 15.6803 17.8492 16.2709 17.8387C16.8827 17.8283 17.2677 17.2945 17.6422 16.7502C18.0694 16.1327 18.2434 15.5309 18.254 15.4995C18.2434 15.4891 17.0726 15.0442 17.0621 13.7046C17.0515 12.5847 17.985 12.0509 18.0272 12.0195C17.4998 11.245 16.677 11.1613 16.3923 11.1403ZM20.6273 9.62274V17.7812H21.9036V14.9919H23.6704C25.2843 14.9919 26.4182 13.893 26.4182 12.3021C26.4182 10.7112 25.3054 9.62274 23.7126 9.62274H20.6273ZM21.9036 10.6903H23.3751C24.4826 10.6903 25.1155 11.2764 25.1155 12.3073C25.1155 13.3382 24.4826 13.9296 23.3698 13.9296H21.9036V10.6903ZM28.7493 17.844C29.551 17.844 30.2946 17.441 30.6322 16.8026H30.6585V17.7812H31.8399V13.7203C31.8399 12.5428 30.8906 11.784 29.4297 11.784C28.0743 11.784 27.0722 12.5533 27.0353 13.6104H28.185C28.2799 13.108 28.7493 12.7783 29.3928 12.7783C30.1733 12.7783 30.6111 13.1394 30.6111 13.804V14.254L29.0183 14.3482C27.5363 14.4372 26.7346 15.039 26.7346 16.0856C26.7346 17.1427 27.5627 17.844 28.7493 17.844ZM29.0921 16.8758C28.4118 16.8758 27.9793 16.5514 27.9793 16.0542C27.9793 15.5414 28.396 15.2431 29.1924 15.196L30.6111 15.107V15.5676C30.6111 16.3316 29.9571 16.8758 29.0921 16.8758ZM33.4169 20C34.6615 20 35.247 19.529 35.7585 18.1004L38 11.8625H36.7026L35.1995 16.6822H35.1731L33.67 11.8625H32.3357L34.498 17.8021L34.382 18.1632C34.1869 18.7755 33.8704 19.0109 33.3061 19.0109C33.2059 19.0109 33.0108 19.0005 32.9316 18.99V19.9686C33.0055 19.9895 33.3219 20 33.4169 20Z" fill="white"/>
</svg>
