<svg width="48" height="28" viewBox="0 0 48 28" fill="none" xmlns="http://www.w3.org/2000/svg">
<rect width="48" height="28" rx="4" fill="#F4B6C7"/>
<path fill-rule="evenodd" clip-rule="evenodd" d="M8.75947 17.8519H7V10H8.75947V17.8519ZM13.154 10H11.4322C11.4322 11.4449 10.7833 12.7712 9.65204 13.6388L8.96988 14.1619L11.613 17.8521H13.7862L11.3541 14.4565C12.507 13.2812 13.154 11.6999 13.154 10ZM15.9607 17.8497H14.2991V10.0015H15.9607V17.8497ZM20.9829 12.4208V12.7681C20.5345 12.4548 19.9932 12.2708 19.4093 12.2708C17.8641 12.2708 16.6115 13.5532 16.6115 15.1353C16.6115 16.7175 17.8641 18 19.4093 18C19.9932 18 20.5345 17.8159 20.9829 17.5028V17.8497H22.5706V12.4208H20.9829ZM20.9777 15.1353C20.9777 15.9068 20.3336 16.5322 19.5392 16.5322C18.7448 16.5322 18.1007 15.9068 18.1007 15.1353C18.1007 14.3639 18.7448 13.7387 19.5392 13.7387C20.3336 13.7387 20.9777 14.3639 20.9777 15.1353ZM37.731 12.7681V12.4208H39.3186V17.8497H37.731V17.5028C37.2826 17.8159 36.7413 18 36.1573 18C34.6121 18 33.3595 16.7175 33.3595 15.1353C33.3595 13.5532 34.6121 12.2708 36.1573 12.2708C36.7413 12.2708 37.2826 12.4548 37.731 12.7681ZM36.2873 16.5322C37.0818 16.5322 37.7257 15.9068 37.7257 15.1353C37.7257 14.3639 37.0818 13.7387 36.2873 13.7387C35.4928 13.7387 34.8488 14.3639 34.8488 15.1353C34.8488 15.9068 35.4928 16.5322 36.2873 16.5322ZM40.0076 16.9441C40.0076 16.3808 40.4536 15.9241 41.0037 15.9241C41.5539 15.9241 42 16.3808 42 16.9441C42 17.5074 41.5539 17.9641 41.0037 17.9641C40.4536 17.9641 40.0076 17.5074 40.0076 16.9441ZM30.5385 12.2748C29.9044 12.2748 29.3043 12.4764 28.903 13.0325V12.4211H27.3223V17.8497H28.9224V14.9968C28.9224 14.1712 29.4631 13.767 30.1141 13.767C30.8118 13.767 31.2129 14.1937 31.2129 14.9855V17.8497H32.7986V14.3973C32.7986 13.134 31.8175 12.2748 30.5385 12.2748ZM25.0264 12.4209V13.1279C25.3446 12.7038 25.9376 12.4212 26.5823 12.4212V14.0009L26.5772 14.0007L26.5734 14.0006L26.5693 14.0004L26.5634 14.0002C25.9353 14.0002 25.03 14.4599 25.03 15.3151V17.8497H23.401V12.4209H25.0264Z" fill="black"/>
</svg>
