<svg width="48" height="28" viewBox="0 0 48 28" fill="none" xmlns="http://www.w3.org/2000/svg">
<rect width="48" height="28" rx="4" fill="#000066"/>
<path d="M27 20.3996H21V8.59961H27V20.3996Z" fill="#FF5F00"/>
<path d="M21.1673 14.5C21.1673 12.1078 22.275 9.9768 24 8.60356C22.7385 7.59937 21.1465 7 19.4163 7C15.3203 7 12 10.3578 12 14.5C12 18.6422 15.3203 22 19.4163 22C21.1465 22 22.7385 21.4007 24 20.3965C22.275 19.0232 21.1673 16.8922 21.1673 14.5Z" fill="#EB001B"/>
<path d="M36 14.5C36 18.6422 32.6798 22 28.584 22C26.8538 22 25.2619 21.4007 24 20.3965C25.7254 19.0232 26.833 16.8922 26.833 14.5C26.833 12.1078 25.7254 9.9768 24 8.60356C25.2619 7.59937 26.8538 7 28.584 7C32.6798 7 36 10.3578 36 14.5Z" fill="#F79E1B"/>
</svg>
