<svg width="48" height="28" viewBox="0 0 48 28" fill="none" xmlns="http://www.w3.org/2000/svg">
<rect width="48" height="28" rx="4" fill="#00457C"/>
<path d="M11.4003 10.4186C11.0004 10.1398 10.4786 10 9.83485 10H7.34268C7.14533 10 7.03631 10.1001 7.0156 10.3001L6.00318 16.7472C5.99266 16.8105 6.00827 16.8684 6.04988 16.921C6.09126 16.9738 6.14329 17 6.20561 17H7.38938C7.59701 17 7.71113 16.9001 7.73208 16.6998L8.0124 14.9618C8.02264 14.8775 8.05915 14.809 8.12148 14.7563C8.18375 14.7037 8.26164 14.6692 8.3551 14.6534C8.44855 14.6378 8.53668 14.6299 8.6199 14.6299C8.70289 14.6299 8.80149 14.6352 8.91589 14.6457C9.03001 14.6562 9.10276 14.6614 9.13394 14.6614C10.0269 14.6614 10.7278 14.4061 11.2367 13.8951C11.7454 13.3842 12 12.6758 12 11.7697C12 11.1483 11.7999 10.698 11.4003 10.4186ZM10.1153 12.3544C10.0632 12.7232 9.92836 12.9654 9.71031 13.0813C9.49221 13.1973 9.1807 13.255 8.77578 13.255L8.26173 13.2708L8.52659 11.5801C8.54725 11.4643 8.61471 11.4063 8.72902 11.4063H9.02506C9.44022 11.4063 9.74154 11.4671 9.92845 11.588C10.1153 11.7092 10.1776 11.9648 10.1153 12.3544Z" fill="white"/>
<path d="M42.7649 10H41.4277C41.2949 10 41.2167 10.058 41.1928 10.1738L40.0181 16.7472L40 16.7788C40 16.8317 40.0241 16.8815 40.0724 16.929C40.1204 16.9763 40.1808 17 40.253 17H41.4459C41.6744 17 41.801 16.9001 41.8254 16.6998L43 10.2369V10.2212C42.9999 10.0738 42.9214 10 42.7649 10Z" fill="white"/>
<path d="M26 12.2807C26 12.214 25.9781 12.1504 25.9349 12.0903C25.8913 12.0302 25.8423 12 25.7881 12H24.5327C24.4129 12 24.3151 12.0672 24.2392 12.2005L22.5109 15.3284L21.7936 12.3209C21.739 12.1071 21.6195 12 21.4348 12H20.2119C20.1574 12 20.1084 12.0302 20.0652 12.0903C20.0216 12.1504 20 12.2141 20 12.2807C20 12.3076 20.106 12.7018 20.3179 13.4637C20.5298 14.2257 20.7581 15.0477 21.0027 15.93C21.2473 16.8121 21.3749 17.2802 21.3858 17.3333C20.4945 18.8305 20.0489 19.6325 20.0489 19.7393C20.0489 19.9132 20.1195 20 20.2608 20H21.5163C21.6359 20 21.7337 19.9333 21.8098 19.7996L25.9675 12.421C25.9891 12.3944 26 12.3478 26 12.2807Z" fill="white"/>
<path d="M39.7531 12.1129H38.3313C38.1566 12.1129 38.0509 12.2904 38.0135 12.6452C37.6889 12.2153 37.0969 12 36.2362 12C35.3383 12 34.5742 12.2904 33.9447 12.871C33.3148 13.4517 33 14.1346 33 14.9194C33 15.554 33.215 16.0593 33.6453 16.4355C34.0755 16.8121 34.6523 17 35.3758 17C35.7374 17 36.1053 16.9354 36.4794 16.8065C36.8536 16.6774 37.1464 16.5055 37.3587 16.2903C37.3587 16.3011 37.346 16.3495 37.3213 16.4354C37.2961 16.5216 37.2838 16.5862 37.2838 16.629C37.2838 16.8012 37.3647 16.887 37.5271 16.887H38.8179C39.0545 16.887 39.192 16.7851 39.2293 16.5806L39.9963 12.371C40.0086 12.3065 39.9899 12.2474 39.9402 12.1936C39.8902 12.1399 39.828 12.1129 39.7531 12.1129ZM37.3119 15.2904C36.9939 15.5592 36.6104 15.6935 36.1615 15.6935C35.7996 15.6935 35.5068 15.6076 35.2822 15.4355C35.0577 15.2637 34.9455 15.0272 34.9455 14.7258C34.9455 14.3282 35.1013 13.992 35.4132 13.7178C35.7246 13.4436 36.1116 13.3065 36.573 13.3065C36.9219 13.3065 37.2119 13.3953 37.4429 13.5726C37.6734 13.7501 37.789 13.9948 37.789 14.3066C37.789 14.6936 37.6299 15.0217 37.3119 15.2904Z" fill="white"/>
<path d="M19.718 12.1129H18.0932C17.8934 12.1129 17.7725 12.2904 17.7297 12.6452C17.3449 12.2153 16.6678 12 15.6986 12C14.6724 12 13.7993 12.2904 13.0796 12.871C12.3597 13.4517 12 14.1346 12 14.9194C12 15.554 12.2459 16.0593 12.7376 16.4355C13.2294 16.8121 13.8884 17 14.7152 17C15.1141 17 15.5277 16.9354 15.9552 16.8065C16.3827 16.6774 16.7248 16.5055 16.9814 16.2903C16.9242 16.4194 16.8959 16.5323 16.8959 16.629C16.8959 16.8012 16.9885 16.887 17.1738 16.887H18.6489C18.9195 16.887 19.0765 16.7851 19.1193 16.5806L19.9958 12.371C20.0099 12.3065 19.9885 12.2474 19.9317 12.1936C19.8747 12.1399 19.8035 12.1129 19.718 12.1129ZM16.928 15.2983C16.5645 15.5621 16.1189 15.6935 15.5918 15.6935C15.1783 15.6935 14.8469 15.6076 14.5976 15.4355C14.3481 15.2637 14.2235 15.0272 14.2235 14.7258C14.2235 14.3282 14.4015 13.992 14.758 13.7178C15.1141 13.4436 15.556 13.3065 16.0835 13.3065C16.4824 13.3065 16.8138 13.3953 17.0777 13.5726C17.3412 13.7501 17.4732 13.9948 17.4732 14.3066C17.4732 14.7044 17.2915 15.0352 16.928 15.2983Z" fill="white"/>
<path d="M32.3004 10.4187C31.8339 10.1398 31.2253 10 30.4741 10H27.5847C27.3422 10 27.2089 10.1001 27.1849 10.3001L26.0037 16.7472C25.9914 16.8105 26.0096 16.8684 26.0582 16.921C26.1063 16.9738 26.1672 17 26.2399 17H27.73C27.8753 17 27.9722 16.9316 28.0207 16.7946L28.3479 14.9618C28.3599 14.8775 28.4023 14.809 28.4751 14.7563C28.5478 14.7036 28.6386 14.6692 28.7477 14.6534C28.8567 14.6378 28.9595 14.6299 29.0567 14.6299C29.1535 14.6299 29.2685 14.6352 29.4018 14.6457C29.5351 14.6562 29.6201 14.6613 29.6562 14.6613C30.6982 14.6613 31.5158 14.4061 32.1095 13.895C32.7032 13.3842 33 12.6758 33 11.7697C33.0001 11.1483 32.7667 10.698 32.3004 10.4187ZM30.4377 13.0181C30.1712 13.1761 29.7714 13.255 29.2384 13.255L28.6568 13.2709L28.9658 11.5801C28.9898 11.4643 29.0685 11.4064 29.202 11.4064H29.529C29.7955 11.4064 30.0075 11.4169 30.1652 11.4379C30.3225 11.4591 30.4741 11.5248 30.6195 11.6354C30.765 11.746 30.8376 11.9067 30.8376 12.1174C30.8376 12.5598 30.7041 12.86 30.4377 13.0181Z" fill="white"/>
</svg>
