<svg width="48" height="28" viewBox="0 0 48 28" fill="none" xmlns="http://www.w3.org/2000/svg">
<rect width="48" height="28" rx="4" fill="#0E4595"/>
<path d="M2.46154 0H45.5385C46.898 0 48 1.0029 48 2.24V25.76C48 26.9972 46.898 28 45.5385 28H2.46154C1.10209 28 0 26.9972 0 25.76V2.24C0 1.0029 1.10209 0 2.46154 0Z" fill="#0E4595"/>
<path d="M18.0489 19.5968L19.9171 8.63427H22.9053L21.0357 19.5968H18.0489ZM31.831 8.87059C31.2391 8.64849 30.3114 8.41016 29.153 8.41016C26.2004 8.41016 24.1206 9.89696 24.1029 12.0279C24.0862 13.6032 25.5877 14.482 26.721 15.0063C27.8842 15.5437 28.2752 15.8863 28.2697 16.3662C28.2623 17.101 27.3409 17.4367 26.482 17.4367C25.286 17.4367 24.6507 17.2705 23.6693 16.8612L23.2843 16.6871L22.8649 19.1412C23.5628 19.4471 24.8534 19.7122 26.1934 19.726C29.3345 19.726 31.3734 18.2562 31.3967 15.9806C31.4079 14.7335 30.6118 13.7845 28.8879 13.002C27.8435 12.495 27.2038 12.1565 27.2106 11.643C27.2106 11.1874 27.752 10.7001 28.9218 10.7001C29.8989 10.6849 30.6068 10.898 31.1583 11.1201L31.4261 11.2466L31.831 8.87059ZM39.5204 8.6341H37.2114C36.4961 8.6341 35.9608 8.82937 35.6467 9.5432L31.2091 19.5896H34.3468C34.3468 19.5896 34.8598 18.2387 34.9758 17.9422C35.3188 17.9422 38.3669 17.9469 38.8027 17.9469C38.8921 18.3307 39.1661 19.5896 39.1661 19.5896H41.9389L39.5204 8.63376V8.6341ZM35.857 15.7131C36.1041 15.0814 37.0476 12.6486 37.0476 12.6486C37.0299 12.6778 37.2928 12.0139 37.4437 11.6023L37.6456 12.5475C37.6456 12.5475 38.2178 15.1643 38.3374 15.7131H35.857ZM15.5122 8.6341L12.5868 16.1101L12.275 14.5908C11.7304 12.8395 10.0336 10.9421 8.13672 9.99221L10.8116 19.5794L13.9732 19.5758L18.6774 8.63399H15.5122" fill="white"/>
<path d="M9.85643 8.63499H5.03814L5 8.86308C8.74853 9.7705 11.2289 11.9634 12.2587 14.598L11.211 9.56028C11.0301 8.86616 10.5055 8.65901 9.85654 8.63477" fill="#F2AE14"/>
</svg>
