<svg width="96" height="105" viewBox="0 0 96 105" fill="none" xmlns="http://www.w3.org/2000/svg">
<circle cx="48" cy="48" r="48" fill="#F1F5F9"/>
<g filter="url(#filter0_d_1196_21948)">
<path fill-rule="evenodd" clip-rule="evenodd" d="M20 87.9916V28C20 26.8954 20.8954 26 22 26H75C76.1046 26 77 26.8954 77 28V87.2525C68.9437 93.3696 58.8958 97 48 97C37.5505 97 27.8809 93.6609 20 87.9916Z" fill="white"/>
</g>
<circle cx="48" cy="48" r="47.5" stroke="#CBD5E1"/>
<path d="M48 65.25C40.1297 65.25 33.75 58.8703 33.75 51C33.75 43.1297 40.1297 36.75 48 36.75C55.8703 36.75 62.25 43.1297 62.25 51C62.25 58.8703 55.8703 65.25 48 65.25ZM46.5793 56.7L56.654 46.6238L54.6391 44.6089L46.5793 52.6701L42.5479 48.6388L40.533 50.6537L46.5793 56.7Z" fill="#6B7280"/>
<rect x="29" y="75" width="38" height="3" fill="#E2E8F0"/>
<rect x="29" y="80" width="22" height="3" fill="#E2E8F0"/>
<rect x="29" y="85" width="33" height="3" fill="#E2E8F0"/>
<path d="M88.0599 17.4677C87.4289 17.5246 86.7979 17.553 86.1812 17.6384C85.2634 17.7807 84.5606 18.2646 84.1304 19.09C83.8435 19.645 83.5854 20.2142 83.3703 20.8119C82.7966 22.3631 82.4524 23.9854 82.0222 25.5651C81.9648 25.7785 81.9505 26.0205 81.9074 26.2339C81.8931 26.3193 81.8788 26.4189 81.8357 26.4901C81.7354 26.7035 81.5489 26.8174 81.3338 26.7889C81.1187 26.7605 80.9466 26.5897 80.9322 26.3478C80.9179 26.2197 80.9179 26.0774 80.9466 25.9351C81.0326 25.3943 81.0039 24.8677 80.9466 24.3412C80.8318 23.3023 80.6741 22.2635 80.3442 21.2673C79.9283 20.0861 79.2973 19.0473 78.3077 18.2361C77.8058 17.8234 77.2895 17.425 76.7732 17.0123C75.9844 16.3861 75.0809 15.9734 74.1487 15.6034C74.0053 15.5465 73.8332 15.5322 73.6611 15.4753C73.5464 15.4469 73.4173 15.4184 73.3026 15.3615C73.0588 15.2476 72.9584 15.0057 73.0157 14.7638C73.0731 14.5361 73.2882 14.3938 73.5464 14.4222C73.7328 14.4365 73.9336 14.4792 74.12 14.5361C75.1813 14.8634 76.2712 14.7922 77.3612 14.6926C77.7628 14.6642 78.1643 14.6215 78.5515 14.5361C79.4551 14.3226 80.1578 13.8245 80.5737 12.9849C80.9035 12.3303 81.133 11.6472 81.2908 10.9214C81.5489 9.79717 81.9074 8.68715 82.0509 7.53445C82.1226 6.95098 82.2086 6.36751 82.2803 5.76981C82.309 5.61327 82.3234 5.45673 82.3664 5.30019C82.4524 5.14365 82.5815 5.01557 82.7679 5.00134C82.9544 4.98711 83.1265 5.08672 83.1838 5.28596C83.2555 5.49942 83.3129 5.72712 83.3273 5.95481C83.399 7.0079 83.4707 8.06099 83.5424 9.12831C83.6141 10.096 83.6571 11.0637 83.7575 12.0172C83.8435 12.7999 84.116 13.5399 84.5606 14.2088C84.9622 14.8207 85.5215 15.2049 86.1812 15.4753C86.6115 15.6461 87.0274 15.8311 87.4576 15.9734C87.6871 16.0588 87.9452 16.0872 88.189 16.1442C88.6623 16.258 89.1499 16.3576 89.6232 16.4857C89.8383 16.5426 89.9817 16.6992 89.996 16.9269C90.0247 17.1403 89.8957 17.3538 89.6662 17.4392C89.5084 17.4961 89.3363 17.5388 89.1642 17.5388C88.7914 17.553 88.4041 17.5388 88.0313 17.5388C88.0599 17.5103 88.0599 17.4819 88.0599 17.4677Z" fill="#94A3B8"/>
<path d="M72.087 22.8671C71.7901 22.8939 71.4931 22.9073 71.2029 22.9475C70.771 23.0145 70.4403 23.2422 70.2378 23.6306C70.1028 23.8918 69.9814 24.1596 69.8801 24.4409C69.6102 25.1709 69.4482 25.9343 69.2457 26.6777C69.2187 26.7781 69.212 26.892 69.1917 26.9924C69.185 27.0326 69.1782 27.0795 69.158 27.113C69.1108 27.2134 69.023 27.267 68.9218 27.2536C68.8205 27.2402 68.7396 27.1599 68.7328 27.046C68.7261 26.9857 68.7261 26.9188 68.7396 26.8518C68.7801 26.5973 68.7666 26.3495 68.7396 26.1017C68.6856 25.6129 68.6113 25.124 68.4561 24.6552C68.2604 24.0994 67.9634 23.6105 67.4978 23.2288C67.2615 23.0346 67.0186 22.847 66.7756 22.6528C66.4044 22.3582 65.9792 22.164 65.5406 21.9898C65.4731 21.963 65.3921 21.9563 65.3111 21.9296C65.2571 21.9162 65.1964 21.9028 65.1424 21.876C65.0277 21.8224 64.9804 21.7086 65.0074 21.5947C65.0344 21.4876 65.1356 21.4206 65.2571 21.434C65.3449 21.4407 65.4393 21.4608 65.5271 21.4876C66.0265 21.6416 66.5394 21.6081 67.0523 21.5612C67.2413 21.5478 67.4303 21.5277 67.6125 21.4876C68.0377 21.3871 68.3684 21.1527 68.5641 20.7576C68.7193 20.4495 68.8273 20.1281 68.9015 19.7865C69.023 19.2575 69.1917 18.7351 69.2592 18.1927C69.293 17.9181 69.3335 17.6435 69.3672 17.3623C69.3807 17.2886 69.3875 17.2149 69.4077 17.1413C69.4482 17.0676 69.5089 17.0073 69.5967 17.0006C69.6844 16.9939 69.7654 17.0408 69.7924 17.1346C69.8261 17.235 69.8531 17.3422 69.8599 17.4493C69.8936 17.9449 69.9274 18.4405 69.9611 18.9427C69.9949 19.3981 70.0151 19.8535 70.0624 20.3022C70.1028 20.6705 70.2311 21.0188 70.4403 21.3335C70.6293 21.6215 70.8925 21.8023 71.2029 21.9296C71.4054 22.0099 71.6011 22.097 71.8036 22.164C71.9116 22.2041 72.033 22.2175 72.1478 22.2443C72.3705 22.2979 72.6 22.3448 72.8227 22.405C72.9239 22.4318 72.9914 22.5055 72.9981 22.6126C73.0116 22.7131 72.9509 22.8136 72.8429 22.8537C72.7687 22.8805 72.6877 22.9006 72.6067 22.9006C72.4312 22.9073 72.249 22.9006 72.0735 22.9006C72.087 22.8872 72.087 22.8738 72.087 22.8671Z" fill="#94A3B8"/>
<path d="M82.5283 35.5767C82.2967 35.5976 82.065 35.608 81.8386 35.6394C81.5017 35.6916 81.2437 35.8692 81.0858 36.1722C80.9805 36.376 80.8858 36.5849 80.8068 36.8043C80.5962 37.3738 80.4699 37.9693 80.3119 38.5492C80.2909 38.6275 80.2856 38.7163 80.2698 38.7947C80.2645 38.826 80.2593 38.8626 80.2435 38.8887C80.2066 38.9671 80.1382 39.0089 80.0592 38.9984C79.9803 38.988 79.9171 38.9253 79.9118 38.8365C79.9065 38.7895 79.9065 38.7372 79.9171 38.685C79.9487 38.4865 79.9381 38.2932 79.9171 38.0999C79.875 37.7185 79.8171 37.3372 79.696 36.9715C79.5433 36.5379 79.3117 36.1566 78.9484 35.8588C78.7641 35.7073 78.5746 35.561 78.3851 35.4095C78.0955 35.1797 77.7639 35.0282 77.4217 34.8924C77.369 34.8715 77.3059 34.8662 77.2427 34.8453C77.2006 34.8349 77.1532 34.8245 77.1111 34.8036C77.0216 34.7618 76.9847 34.673 77.0058 34.5841C77.0268 34.5006 77.1058 34.4483 77.2006 34.4588C77.269 34.464 77.3427 34.4797 77.4111 34.5006C77.8007 34.6207 78.2008 34.5946 78.6009 34.558C78.7483 34.5476 78.8958 34.5319 79.0379 34.5006C79.3696 34.4222 79.6275 34.2394 79.7802 33.9311C79.9013 33.6908 79.9855 33.4401 80.0434 33.1737C80.1382 32.761 80.2698 32.3535 80.3224 31.9304C80.3488 31.7162 80.3804 31.502 80.4067 31.2826C80.4172 31.2251 80.4225 31.1677 80.4383 31.1102C80.4699 31.0527 80.5172 31.0057 80.5857 31.0005C80.6541 30.9953 80.7173 31.0318 80.7383 31.105C80.7647 31.1833 80.7857 31.2669 80.791 31.3505C80.8173 31.7371 80.8436 32.1236 80.87 32.5154C80.8963 32.8707 80.9121 33.2259 80.9489 33.5759C80.9805 33.8632 81.0805 34.1349 81.2437 34.3804C81.3912 34.605 81.5965 34.7461 81.8386 34.8453C81.9966 34.908 82.1493 34.9759 82.3072 35.0282C82.3914 35.0595 82.4862 35.07 82.5757 35.0909C82.7494 35.1327 82.9284 35.1692 83.1021 35.2162C83.1811 35.2371 83.2338 35.2946 83.239 35.3782C83.2495 35.4566 83.2022 35.5349 83.1179 35.5663C83.06 35.5872 82.9968 35.6028 82.9337 35.6028C82.7968 35.608 82.6546 35.6028 82.5178 35.6028C82.5283 35.5924 82.5283 35.5819 82.5283 35.5767Z" fill="#94A3B8"/>
<defs>
<filter id="filter0_d_1196_21948" x="8" y="14" width="77" height="91" filterUnits="userSpaceOnUse" color-interpolation-filters="sRGB">
<feFlood flood-opacity="0" result="BackgroundImageFix"/>
<feColorMatrix in="SourceAlpha" type="matrix" values="0 0 0 0 0 0 0 0 0 0 0 0 0 0 0 0 0 0 127 0" result="hardAlpha"/>
<feOffset dx="-2" dy="-2"/>
<feGaussianBlur stdDeviation="5"/>
<feComposite in2="hardAlpha" operator="out"/>
<feColorMatrix type="matrix" values="0 0 0 0 0 0 0 0 0 0 0 0 0 0 0 0 0 0 0.1 0"/>
<feBlend mode="normal" in2="BackgroundImageFix" result="effect1_dropShadow_1196_21948"/>
<feBlend mode="normal" in="SourceGraphic" in2="effect1_dropShadow_1196_21948" result="shape"/>
</filter>
</defs>
</svg>
